<mxfile host="app.diagrams.net" modified="2020-09-28T05:55:58.586Z" agent="5.0 (Macintosh; Intel Mac OS X 10_14_6) AppleWebKit/537.36 (KHTML, like Gecko) Chrome/85.0.4183.102 Safari/537.36" etag="T3zHy8oRowXtN3Cu2iYl" version="13.7.5" type="github">
  <diagram name="Page-1" id="e7e014a7-5840-1c2e-5031-d8a46d1fe8dd">
    <mxGraphModel dx="1231" dy="883" grid="1" gridSize="10" guides="1" tooltips="1" connect="1" arrows="1" fold="1" page="1" pageScale="1" pageWidth="1169" pageHeight="826" background="#ffffff" math="0" shadow="0">
      <root>
        <mxCell id="0" />
        <mxCell id="1" parent="0" />
        <mxCell id="sDdto7aKOgxgB0f0ACSr-41" value="Actor" style="shape=umlActor;verticalLabelPosition=bottom;verticalAlign=top;html=1;outlineConnect=0;" parent="1" vertex="1">
          <mxGeometry x="230" y="200" width="30" height="50" as="geometry" />
        </mxCell>
        <mxCell id="sDdto7aKOgxgB0f0ACSr-42" value="system" style="rounded=0;whiteSpace=wrap;html=1;" parent="1" vertex="1">
          <mxGeometry x="400" y="210" width="160" height="50" as="geometry" />
        </mxCell>
        <mxCell id="sDdto7aKOgxgB0f0ACSr-47" style="edgeStyle=orthogonalEdgeStyle;rounded=0;orthogonalLoop=1;jettySize=auto;html=1;exitX=1;exitY=0.25;exitDx=0;exitDy=0;entryX=0;entryY=0.25;entryDx=0;entryDy=0;" parent="1" source="sDdto7aKOgxgB0f0ACSr-43" target="sDdto7aKOgxgB0f0ACSr-45" edge="1">
          <mxGeometry relative="1" as="geometry">
            <mxPoint x="630" y="370" as="targetPoint" />
          </mxGeometry>
        </mxCell>
        <mxCell id="sDdto7aKOgxgB0f0ACSr-43" value="" style="rounded=0;whiteSpace=wrap;html=1;" parent="1" vertex="1">
          <mxGeometry x="240" y="280" width="10" height="240" as="geometry" />
        </mxCell>
        <mxCell id="sDdto7aKOgxgB0f0ACSr-45" value="" style="rounded=0;whiteSpace=wrap;html=1;" parent="1" vertex="1">
          <mxGeometry x="480" y="280" width="10" height="240" as="geometry" />
        </mxCell>
        <mxCell id="sDdto7aKOgxgB0f0ACSr-49" value="" style="endArrow=classic;html=1;entryX=1;entryY=0.636;entryDx=0;entryDy=0;entryPerimeter=0;exitX=0;exitY=0.644;exitDx=0;exitDy=0;exitPerimeter=0;" parent="1" source="sDdto7aKOgxgB0f0ACSr-45" target="sDdto7aKOgxgB0f0ACSr-43" edge="1">
          <mxGeometry width="50" height="50" relative="1" as="geometry">
            <mxPoint x="560" y="510" as="sourcePoint" />
            <mxPoint x="610" y="460" as="targetPoint" />
          </mxGeometry>
        </mxCell>
        <mxCell id="B4EqauVhTjoRC0mvep1e-1" value="Task Register" style="text;html=1;align=center;verticalAlign=middle;resizable=0;points=[];autosize=1;" vertex="1" parent="1">
          <mxGeometry x="310" y="321" width="90" height="20" as="geometry" />
        </mxCell>
        <mxCell id="B4EqauVhTjoRC0mvep1e-2" value="reply" style="text;html=1;align=center;verticalAlign=middle;resizable=0;points=[];autosize=1;" vertex="1" parent="1">
          <mxGeometry x="335" y="440" width="40" height="20" as="geometry" />
        </mxCell>
      </root>
    </mxGraphModel>
  </diagram>
</mxfile>
